<svg width="16" height="16" viewBox="0 0 16 16" fill="none" xmlns="http://www.w3.org/2000/svg">
<rect x="15.1426" y="0.143311" width="15" height="15" rx="7.5" transform="rotate(90.5476 15.1426 0.143311)" fill="#70FFA0"/>
<path d="M7.72296 8.07067C7.67617 8.02298 7.5 7.85993 7.42248 7.76439C7.42248 7.76439 7.62975 7.97566 7.72296 8.07067C7.94712 8.29915 7.98446 8.25391 8.12571 8.39838C8.22506 8.5 8.5 8.07864 8.55626 8.07864L10.6173 6.05658C10.7015 5.97404 10.7991 5.93498 10.9101 5.93937C11.0212 5.94377 11.118 5.98817 11.2006 6.07257C11.2761 6.15663 11.3152 6.25423 11.3178 6.36537C11.3203 6.47651 11.2794 6.57335 11.195 6.65588L8.41882 9.37946C8.37676 9.42073 8.33134 9.44988 8.28256 9.46692C8.23378 9.48395 8.18162 9.49206 8.12607 9.49126C8.07052 9.49045 8.01852 9.48134 7.97008 9.46393C7.92163 9.44652 7.87677 9.41651 7.83551 9.37389L5.11192 6.59773C5.03627 6.52062 4.99899 6.42484 5.00008 6.3104C5.00117 6.19596 5.04031 6.0973 5.1175 6.01442C5.20163 5.93189 5.30091 5.89117 5.41535 5.89227C5.52979 5.89336 5.62841 5.93597 5.71122 6.0201L7.72296 8.07067Z" fill="black"/>
</svg>
