<svg width="16" height="16" viewBox="0 0 16 16" fill="none" xmlns="http://www.w3.org/2000/svg">
<rect x="1" y="1" width="14" height="14" rx="7" fill="#DFE3DF"/>
<rect x="1" y="1" width="14" height="14" rx="7" stroke="white"/>
<path d="M9.82804 8.4195H5.1718C5.05374 8.4195 4.95485 8.3795 4.87513 8.2995C4.79541 8.2195 4.75541 8.12061 4.75513 8.00283C4.75485 7.88506 4.79485 7.78617 4.87513 7.70617C4.95541 7.62617 5.0543 7.58617 5.1718 7.58617H9.82804L7.78638 5.5445C7.70304 5.46117 7.66305 5.36394 7.66638 5.25283C7.66971 5.14172 7.71318 5.0445 7.7968 4.96117C7.88013 4.88478 7.97735 4.84478 8.08846 4.84117C8.19957 4.83756 8.2968 4.87756 8.38013 4.96117L11.1301 7.71117C11.1718 7.75283 11.2014 7.79797 11.2189 7.84658C11.2364 7.89519 11.245 7.94728 11.2447 8.00283C11.2444 8.05839 11.2358 8.11047 11.2189 8.15908C11.2019 8.20769 11.1724 8.25283 11.1301 8.2945L8.38013 11.0445C8.30374 11.1209 8.20832 11.1591 8.09388 11.1591C7.97943 11.1591 7.88041 11.1209 7.7968 11.0445C7.71346 10.9612 7.67179 10.8623 7.67179 10.7478C7.67179 10.6334 7.71346 10.5344 7.7968 10.4507L9.82804 8.4195Z" fill="black"/>
</svg>
