<svg width="23" height="24" viewBox="0 0 23 24" fill="none" xmlns="http://www.w3.org/2000/svg">
<path d="M6.93244 13.1343H20.2896C20.6283 13.1343 20.912 13.0196 21.1407 12.7901C21.3694 12.5606 21.4841 12.2769 21.4849 11.939C21.4857 11.6012 21.3709 11.3175 21.1407 11.088C20.9104 10.8585 20.6267 10.7438 20.2896 10.7438H6.93244L12.7893 4.88692C13.0283 4.64786 13.1431 4.36897 13.1335 4.05023C13.124 3.73149 12.9992 3.45259 12.7594 3.21353C12.5203 2.9944 12.2414 2.87965 11.9227 2.8693C11.604 2.85894 11.3251 2.97368 11.086 3.21353L3.19721 11.1023C3.07768 11.2219 2.99281 11.3514 2.94261 11.4908C2.89241 11.6303 2.86771 11.7797 2.86851 11.939C2.8693 12.0984 2.894 12.2478 2.94261 12.3873C2.99122 12.5267 3.07609 12.6562 3.19721 12.7757L11.086 20.6645C11.3051 20.8837 11.5789 20.9932 11.9072 20.9932C12.2355 20.9932 12.5195 20.8837 12.7594 20.6645C12.9985 20.4255 13.118 20.1418 13.118 19.8135C13.118 19.4852 12.9985 19.2011 12.7594 18.9613L6.93244 13.1343Z" fill="black"/>
</svg>
