<svg width="56" height="56" viewBox="0 0 56 56" fill="none" xmlns="http://www.w3.org/2000/svg">
<rect x="1.70723" y="1.74996" width="52.1736" height="52.1736" rx="26.0868" fill="#FFE5CA"/>
<rect x="1.70723" y="1.74996" width="52.1736" height="52.1736" rx="26.0868" stroke="#D9D9D9" stroke-width="2.48446"/>
<path d="M22.7034 21.5585C23.5065 22.0144 24.4151 22.2517 25.3386 22.2466C26.2621 22.2416 27.1681 21.9944 27.9661 21.5297C28.7642 21.0651 29.4264 20.3992 29.8867 19.5986C30.347 18.798 30.5892 17.8907 30.5892 16.9672C30.5892 16.0438 30.347 15.1364 29.8867 14.3358C29.4264 13.5353 28.7642 12.8694 27.9661 12.4047C27.1681 11.9401 26.2621 11.6929 25.3386 11.6879C24.4151 11.6828 23.5065 11.9201 22.7034 12.376C23.2415 13.0142 23.6625 13.7426 23.9469 14.5275C24.3723 14.2897 24.8524 14.1673 25.3398 14.1724C25.8271 14.1775 26.3046 14.3099 26.7249 14.5565C27.1453 14.8031 27.4938 15.1553 27.736 15.5782C27.9782 16.001 28.1056 16.4799 28.1056 16.9672C28.1056 17.4546 27.9782 17.9334 27.736 18.3563C27.4938 18.7792 27.1453 19.1314 26.7249 19.378C26.3046 19.6246 25.8271 19.757 25.3398 19.7621C24.8524 19.7672 24.3723 19.6448 23.9469 19.407C23.6628 20.1918 23.2411 20.9202 22.7034 21.5585ZM23.3531 43.7459C24.5438 44.0439 25.7867 44.0665 26.9874 43.8121C28.1881 43.5576 29.315 43.0328 30.2824 42.2774C31.2498 41.5221 32.0323 40.5561 32.5704 39.453C33.1086 38.3499 33.3881 37.1386 33.3878 35.9112V27.2156C33.3878 26.392 33.0606 25.6021 32.4782 25.0197C31.8958 24.4372 31.1059 24.1101 30.2822 24.1101H26.0872C26.6599 24.8255 27.0237 25.6853 27.1382 26.5945H30.2785C30.4432 26.5945 30.6012 26.6599 30.7177 26.7764C30.8342 26.8929 30.8996 27.0509 30.8996 27.2156V35.9112C30.8998 37.3687 30.3307 38.7687 29.3136 39.8127C28.2966 40.8566 26.912 41.4621 25.4549 41.5C24.8744 42.3534 24.1644 43.1111 23.3506 43.7459M30.7767 21.5598C31.5798 22.0157 32.4884 22.2529 33.4118 22.2479C34.3353 22.2428 35.2413 21.9956 36.0394 21.531C36.8374 21.0663 37.4997 20.4005 37.9599 19.5999C38.4202 18.7993 38.6625 17.892 38.6625 16.9685C38.6625 16.045 38.4202 15.1377 37.9599 14.3371C37.4997 13.5365 36.8374 12.8706 36.0394 12.406C35.2413 11.9413 34.3353 11.6941 33.4118 11.6891C32.4884 11.684 31.5798 11.9213 30.7767 12.3772C31.3083 13.0083 31.7332 13.735 32.0201 14.5263C32.4455 14.2885 32.9257 14.1661 33.413 14.1711C33.9003 14.1762 34.3778 14.3086 34.7982 14.5552C35.2185 14.8018 35.5671 15.154 35.8093 15.5769C36.0515 15.9998 36.1789 16.4787 36.1789 16.966C36.1789 17.4533 36.0515 17.9322 35.8093 18.3551C35.5671 18.778 35.2185 19.1302 34.7982 19.3768C34.3778 19.6234 33.9003 19.7558 33.413 19.7609C32.9257 19.7659 32.4455 19.6435 32.0201 19.4057C31.7362 20.191 31.3157 20.9198 30.7779 21.5585M31.4263 43.7447C32.617 44.0427 33.8599 44.0653 35.0606 43.8108C36.2613 43.5564 37.3882 43.0315 38.3557 42.2762C39.3231 41.5208 40.1056 40.5549 40.6437 39.4518C41.1818 38.3486 41.4613 37.1374 41.4611 35.91V27.2144C41.4611 26.3907 41.1339 25.6008 40.5515 25.0184C39.969 24.436 39.1791 24.1088 38.3555 24.1088H34.1605C34.7332 24.8242 35.0969 25.6841 35.2114 26.5933H38.3542C38.519 26.5933 38.677 26.6587 38.7934 26.7752C38.9099 26.8917 38.9754 27.0497 38.9754 27.2144V35.91C38.9755 37.3675 38.4064 38.7674 37.3894 39.8114C36.3723 40.8554 34.9877 41.4609 33.5307 41.4988C32.9501 42.3521 32.2402 43.1099 31.4263 43.7447ZM9.16064 27.2156C9.16064 26.392 9.48784 25.6021 10.0702 25.0197C10.6527 24.4372 11.4426 24.1101 12.2662 24.1101H22.204C23.0277 24.1101 23.8176 24.4372 24.4 25.0197C24.9824 25.6021 25.3096 26.392 25.3096 27.2156V35.9112C25.3096 38.0527 24.4589 40.1065 22.9446 41.6207C21.4304 43.135 19.3766 43.9857 17.2351 43.9857C15.0936 43.9857 13.0399 43.135 11.5256 41.6207C10.0113 40.1065 9.16064 38.0527 9.16064 35.9112V27.2156ZM12.2662 26.5945C12.1015 26.5945 11.9435 26.6599 11.827 26.7764C11.7105 26.8929 11.6451 27.0509 11.6451 27.2156V35.9112C11.6451 36.6453 11.7897 37.3722 12.0706 38.0504C12.3515 38.7286 12.7633 39.3449 13.2824 39.864C13.8015 40.383 14.4177 40.7948 15.0959 41.0757C15.7741 41.3567 16.501 41.5012 17.2351 41.5012C17.9692 41.5012 18.6961 41.3567 19.3743 41.0757C20.0525 40.7948 20.6688 40.383 21.1879 39.864C21.707 39.3449 22.1187 38.7286 22.3996 38.0504C22.6806 37.3722 22.8252 36.6453 22.8252 35.9112V27.2156C22.8252 27.0509 22.7597 26.8929 22.6432 26.7764C22.5268 26.6599 22.3688 26.5945 22.204 26.5945H12.2662ZM14.4401 16.9672C14.4401 16.226 14.7346 15.515 15.2588 14.9909C15.7829 14.4667 16.4938 14.1722 17.2351 14.1722C17.9764 14.1722 18.6873 14.4667 19.2115 14.9909C19.7357 15.515 20.0301 16.226 20.0301 16.9672C20.0301 17.7085 19.7357 18.4194 19.2115 18.9436C18.6873 19.4678 17.9764 19.7623 17.2351 19.7623C16.4938 19.7623 15.7829 19.4678 15.2588 18.9436C14.7346 18.4194 14.4401 17.7085 14.4401 16.9672ZM17.2351 11.6878C15.8349 11.6878 14.4921 12.244 13.502 13.2341C12.5119 14.2242 11.9557 15.567 11.9557 16.9672C11.9557 18.3674 12.5119 19.7103 13.502 20.7004C14.4921 21.6905 15.8349 22.2467 17.2351 22.2467C18.6353 22.2467 19.9782 21.6905 20.9683 20.7004C21.9584 19.7103 22.5146 18.3674 22.5146 16.9672C22.5146 15.567 21.9584 14.2242 20.9683 13.2341C19.9782 12.244 18.6353 11.6878 17.2351 11.6878Z" fill="black"/>
<rect x="45.0178" y="12.93" width="1.67916" height="44.4902" rx="0.839578" transform="rotate(51.0378 45.0178 12.93)" fill="#033A05"/>
<rect x="10.4028" y="14.264" width="1.67916" height="44.4902" rx="0.839578" transform="rotate(-51.1289 10.4028 14.264)" fill="#033A05"/>
</svg>
