<svg width="22" height="22" viewBox="0 0 22 22" fill="none" xmlns="http://www.w3.org/2000/svg">
<rect x="0.5" y="0.5" width="21" height="21" rx="10.5" fill="#FFE5CA"/>
<rect x="0.5" y="0.5" width="21" height="21" rx="10.5" stroke="#D9D9D9"/>
<path d="M8.951 8.473C9.27425 8.6565 9.63998 8.752 10.0117 8.74997C10.3834 8.74794 10.748 8.64844 11.0693 8.46142C11.3905 8.2744 11.657 8.00639 11.8423 7.68414C12.0276 7.3619 12.1251 6.9967 12.1251 6.625C12.1251 6.2533 12.0276 5.8881 11.8423 5.56586C11.657 5.24361 11.3905 4.9756 11.0693 4.78858C10.748 4.60156 10.3834 4.50206 10.0117 4.50003C9.63998 4.498 9.27425 4.5935 8.951 4.777C9.16758 5.03391 9.33702 5.32709 9.4515 5.643C9.62272 5.54729 9.81599 5.49802 10.0121 5.50006C10.2083 5.50211 10.4005 5.5554 10.5697 5.65465C10.7389 5.75391 10.8791 5.89567 10.9766 6.06589C11.0741 6.2361 11.1254 6.42885 11.1254 6.625C11.1254 6.82115 11.0741 7.0139 10.9766 7.18411C10.8791 7.35433 10.7389 7.49609 10.5697 7.59535C10.4005 7.6946 10.2083 7.7479 10.0121 7.74994C9.81599 7.75198 9.62272 7.70271 9.4515 7.607C9.33717 7.92288 9.1674 8.21606 8.951 8.473ZM9.2125 17.4035C9.69174 17.5234 10.192 17.5325 10.6753 17.4301C11.1586 17.3277 11.6122 17.1164 12.0016 16.8124C12.391 16.5084 12.7059 16.1196 12.9225 15.6756C13.1391 15.2316 13.2516 14.744 13.2515 14.25V10.75C13.2515 10.4185 13.1198 10.1005 12.8854 9.86612C12.651 9.6317 12.333 9.5 12.0015 9.5H10.313C10.5435 9.78795 10.6899 10.134 10.736 10.5H12C12.0663 10.5 12.1299 10.5263 12.1768 10.5732C12.2237 10.6201 12.25 10.6837 12.25 10.75V14.25C12.2501 14.8367 12.021 15.4001 11.6116 15.8203C11.2023 16.2405 10.645 16.4842 10.0585 16.4995C9.82482 16.843 9.53906 17.148 9.2115 17.4035M12.2005 8.4735C12.5237 8.657 12.8895 8.7525 13.2612 8.75047C13.6329 8.74844 13.9975 8.64894 14.3188 8.46192C14.64 8.2749 14.9065 8.00689 15.0918 7.68464C15.2771 7.3624 15.3746 6.9972 15.3746 6.6255C15.3746 6.2538 15.2771 5.8886 15.0918 5.56636C14.9065 5.24411 14.64 4.9761 14.3188 4.78908C13.9975 4.60206 13.6329 4.50256 13.2612 4.50053C12.8895 4.4985 12.5237 4.594 12.2005 4.7775C12.4145 5.0315 12.5855 5.324 12.701 5.6425C12.8722 5.54679 13.0655 5.49752 13.2616 5.49956C13.4578 5.50161 13.65 5.5549 13.8192 5.65415C13.9884 5.75341 14.1286 5.89517 14.2261 6.06539C14.3236 6.2356 14.3749 6.42835 14.3749 6.6245C14.3749 6.82065 14.3236 7.0134 14.2261 7.18361C14.1286 7.35383 13.9884 7.49559 13.8192 7.59485C13.65 7.6941 13.4578 7.74739 13.2616 7.74944C13.0655 7.75148 12.8722 7.70221 12.701 7.6065C12.5867 7.92255 12.4175 8.21591 12.201 8.473M12.462 17.403C12.9412 17.5229 13.4415 17.532 13.9248 17.4296C14.4081 17.3272 14.8617 17.1159 15.2511 16.8119C15.6405 16.5079 15.9554 16.1191 16.172 15.6751C16.3886 15.2311 16.5011 14.7435 16.501 14.2495V10.7495C16.501 10.418 16.3693 10.1 16.1349 9.86562C15.9005 9.6312 15.5825 9.4995 15.251 9.4995H13.5625C13.793 9.78745 13.9394 10.1335 13.9855 10.4995H15.2505C15.3168 10.4995 15.3804 10.5258 15.4273 10.5727C15.4742 10.6196 15.5005 10.6832 15.5005 10.7495V14.2495C15.5006 14.8362 15.2715 15.3996 14.8621 15.8198C14.4528 16.24 13.8955 16.4837 13.309 16.499C13.0753 16.8425 12.7896 17.1475 12.462 17.403ZM3.5 10.75C3.5 10.4185 3.6317 10.1005 3.86612 9.86612C4.10054 9.6317 4.41848 9.5 4.75 9.5H8.75C9.08152 9.5 9.39946 9.6317 9.63388 9.86612C9.8683 10.1005 10 10.4185 10 10.75V14.25C10 15.112 9.65759 15.9386 9.0481 16.5481C8.4386 17.1576 7.61195 17.5 6.75 17.5C5.88805 17.5 5.0614 17.1576 4.4519 16.5481C3.84241 15.9386 3.5 15.112 3.5 14.25V10.75ZM4.75 10.5C4.6837 10.5 4.62011 10.5263 4.57322 10.5732C4.52634 10.6201 4.5 10.6837 4.5 10.75V14.25C4.5 14.5455 4.5582 14.8381 4.67127 15.111C4.78434 15.384 4.95008 15.6321 5.15901 15.841C5.36794 16.0499 5.61598 16.2157 5.88896 16.3287C6.16194 16.4418 6.45453 16.5 6.75 16.5C7.04547 16.5 7.33806 16.4418 7.61104 16.3287C7.88402 16.2157 8.13206 16.0499 8.34099 15.841C8.54992 15.6321 8.71566 15.384 8.82873 15.111C8.9418 14.8381 9 14.5455 9 14.25V10.75C9 10.6837 8.97366 10.6201 8.92678 10.5732C8.87989 10.5263 8.8163 10.5 8.75 10.5H4.75ZM5.625 6.625C5.625 6.32663 5.74353 6.04048 5.9545 5.8295C6.16548 5.61853 6.45163 5.5 6.75 5.5C7.04837 5.5 7.33452 5.61853 7.5455 5.8295C7.75647 6.04048 7.875 6.32663 7.875 6.625C7.875 6.92337 7.75647 7.20952 7.5455 7.4205C7.33452 7.63147 7.04837 7.75 6.75 7.75C6.45163 7.75 6.16548 7.63147 5.9545 7.4205C5.74353 7.20952 5.625 6.92337 5.625 6.625ZM6.75 4.5C6.18641 4.5 5.64591 4.72388 5.2474 5.1224C4.84888 5.52091 4.625 6.06141 4.625 6.625C4.625 7.18859 4.84888 7.72909 5.2474 8.1276C5.64591 8.52612 6.18641 8.75 6.75 8.75C7.31359 8.75 7.85409 8.52612 8.2526 8.1276C8.65112 7.72909 8.875 7.18859 8.875 6.625C8.875 6.06141 8.65112 5.52091 8.2526 5.1224C7.85409 4.72388 7.31359 4.5 6.75 4.5Z" fill="black"/>
<rect x="17.9326" y="5" width="0.675865" height="17.9074" rx="0.337932" transform="rotate(51.0378 17.9326 5)" fill="#033A05"/>
<rect x="4" y="5.53693" width="0.675865" height="17.9074" rx="0.337932" transform="rotate(-51.1289 4 5.53693)" fill="#033A05"/>
</svg>
