<svg width="23" height="24" viewBox="0 0 23 24" fill="none" xmlns="http://www.w3.org/2000/svg">
<path d="M16.0168 13.1343H2.65963C2.32097 13.1343 2.03729 13.0196 1.8086 12.7901C1.5799 12.5606 1.46516 12.2769 1.46436 11.939C1.46356 11.6012 1.57831 11.3175 1.8086 11.088C2.03889 10.8585 2.32257 10.7438 2.65963 10.7438H16.0168L10.16 4.88692C9.92092 4.64786 9.80617 4.36897 9.81574 4.05023C9.8253 3.73149 9.95001 3.45259 10.1899 3.21353C10.4289 2.9944 10.7078 2.87965 11.0265 2.8693C11.3453 2.85894 11.6242 2.97368 11.8632 3.21353L19.752 11.1023C19.8716 11.2219 19.9564 11.3514 20.0066 11.4908C20.0568 11.6303 20.0815 11.7797 20.0807 11.939C20.08 12.0984 20.0552 12.2478 20.0066 12.3873C19.958 12.5267 19.8732 12.6562 19.752 12.7757L11.8632 20.6645C11.6441 20.8837 11.3704 20.9932 11.0421 20.9932C10.7138 20.9932 10.4297 20.8837 10.1899 20.6645C9.9508 20.4255 9.83127 20.1418 9.83127 19.8135C9.83127 19.4852 9.9508 19.2011 10.1899 18.9613L16.0168 13.1343Z" fill="black"/>
</svg>
