<svg width="22" height="22" viewBox="0 0 22 22" fill="none" xmlns="http://www.w3.org/2000/svg">
<rect x="0.5" y="0.5" width="21" height="21" rx="10.5" fill="#FFE5CA"/>
<rect x="0.5" y="0.5" width="21" height="21" rx="10.5" stroke="#D9D9D9"/>
<path fill-rule="evenodd" clip-rule="evenodd" d="M13.1121 14.7374C12.9815 14.6535 12.8431 14.5825 12.6988 14.5253C11.7407 14.1447 11.8443 14.4326 12.334 14.0575C13.7545 12.9691 13.5582 10.2972 11.6922 9.93294C11.6438 9.92307 11.5935 9.93233 11.5518 9.95876C11.5102 9.9852 11.4803 10.0268 11.4686 10.0747C11.3977 10.4117 11.9261 10.1778 12.4485 10.8414C13.2588 11.8807 12.677 14.4653 9.99965 13.8508C7.93739 13.426 8.20948 9.82934 11.0117 10.0415C11.0331 10.0436 11.0547 10.0415 11.0753 10.0353C11.0959 10.0291 11.1151 10.0189 11.1318 10.0053C11.1484 9.99165 11.1622 9.97488 11.1724 9.95592C11.1826 9.93696 11.1889 9.91618 11.1911 9.89477C11.1932 9.87336 11.1911 9.85174 11.1849 9.83113C11.1787 9.81053 11.1685 9.79135 11.1549 9.77469C11.1413 9.75804 11.1245 9.74422 11.1056 9.73405C11.0866 9.72387 11.0658 9.71752 11.0444 9.71537C7.8556 9.31241 7.18654 13.3175 9.41183 14.335C8.10588 14.8792 7.05621 15.9021 7.23561 17.2572C7.23377 17.2797 7.23661 17.3024 7.24397 17.3237C7.25133 17.3451 7.26303 17.3647 7.27835 17.3814C7.29367 17.398 7.31227 17.4113 7.33298 17.4203C7.35368 17.4294 7.37604 17.4341 7.39865 17.4341C7.42126 17.4341 7.44362 17.4294 7.46432 17.4203C7.48503 17.4113 7.50363 17.398 7.51895 17.3814C7.53427 17.3647 7.54597 17.3451 7.55333 17.3237C7.56069 17.3024 7.56353 17.2797 7.56169 17.2572C7.61076 16.8569 7.77326 16.4796 8.03009 16.1688C8.41015 15.6796 8.85269 15.2424 9.3464 14.8683C9.92331 14.5199 9.89059 14.5526 9.89059 14.498C10.092 14.5384 10.2952 14.5638 10.5002 14.5744C10.3191 15.2861 10.2931 16.0285 10.4239 16.7512C10.4239 16.8602 10.4239 17.1154 10.6638 17.0554C10.9026 16.9954 10.8323 16.8706 10.8323 16.7021C10.8323 16.6421 10.9632 15.7713 10.9741 15.6137C10.973 15.2492 10.9438 14.8853 10.8868 14.5253C11.1022 14.5133 11.316 14.4762 11.5232 14.4163C11.5722 14.5308 11.7086 14.5144 12.3231 14.8901C13.0805 15.4628 13.6399 16.2581 13.923 17.1645C13.9346 17.2113 13.964 17.2517 14.0048 17.2773C14.0457 17.3029 14.0949 17.3117 14.1421 17.3018C14.1893 17.2919 14.2308 17.2642 14.258 17.2243C14.2851 17.1845 14.2958 17.1357 14.2877 17.0881C14.2148 16.1821 13.7934 15.3391 13.1121 14.7374Z" fill="#020202"/>
<path fill-rule="evenodd" clip-rule="evenodd" d="M10.4237 11.5328C9.99749 11.7888 9.50604 11.9154 9.00921 11.897C8.98697 11.8958 8.9647 11.899 8.94377 11.9067C8.92284 11.9143 8.90368 11.9261 8.88748 11.9414C8.87128 11.9567 8.85837 11.9751 8.84955 11.9956C8.84073 12.016 8.83618 12.0381 8.83618 12.0604C8.83618 12.0826 8.84073 12.1047 8.84955 12.1251C8.85837 12.1456 8.87128 12.164 8.88748 12.1793C8.90368 12.1946 8.92284 12.2064 8.94377 12.2141C8.9647 12.2217 8.98697 12.225 9.00921 12.2237C9.58564 12.3703 10.1945 12.3204 10.7394 12.0819C11.0124 11.8958 11.2972 11.7289 11.5938 11.5813C12.029 12.0061 12.2902 12.4085 12.4914 12.1855C12.525 12.1492 12.5436 12.1016 12.5436 12.0522C12.5436 12.0028 12.525 11.9551 12.4914 11.9189C12.0181 11.4346 11.9472 10.8305 11.4466 10.9777C11.0929 11.1391 10.7519 11.3241 10.4237 11.5328Z" fill="#020202"/>
<path fill-rule="evenodd" clip-rule="evenodd" d="M10.3691 8.5561C10.4509 8.73059 10.5381 8.98033 10.7339 8.86092C10.7648 8.8467 10.7907 8.82348 10.8083 8.79429C10.8258 8.76511 10.8341 8.73131 10.8321 8.69733C10.8321 8.63735 10.2224 6.98351 10.1515 6.79321C11.5175 6.74413 11.4302 6.88045 11.12 4.48612C11.1158 4.44332 11.0955 4.40371 11.0632 4.37534C11.0309 4.34698 10.989 4.33199 10.946 4.33344C10.6521 4.33344 10.8697 4.74731 10.7443 6.15086C10.6085 6.15086 9.76548 6.17813 9.65643 6.19449C9.60442 6.1947 9.55341 6.2087 9.50859 6.23507C9.46377 6.26143 9.42674 6.29922 9.4013 6.34457C9.37585 6.38992 9.36289 6.44121 9.36374 6.4932C9.36459 6.5452 9.37922 6.59604 9.40614 6.64053C9.6188 6.98351 10.1461 8.08825 10.3691 8.5561ZM7.56145 10.6456C7.60507 10.4493 7.40332 10.4057 7.22392 10.3026C6.82696 10.0905 6.02703 9.64449 5.48829 9.36149C6.10882 8.77912 6.3591 8.55065 6.26095 8.30582C5.78093 7.71077 5.23302 7.17384 4.62838 6.70596C4.61438 6.68703 4.59646 6.67134 4.57584 6.65996C4.55522 6.64859 4.53238 6.6418 4.5089 6.64007C4.48541 6.63833 4.46183 6.64169 4.43976 6.6499C4.41769 6.65812 4.39766 6.671 4.38103 6.68767C4.3644 6.70434 4.35156 6.72441 4.3434 6.7465C4.33523 6.76859 4.33193 6.79218 4.33373 6.81566C4.33552 6.83914 4.34236 6.86196 4.35378 6.88255C4.3652 6.90314 4.38094 6.92103 4.39991 6.93498C4.65074 7.22289 5.33616 8.02282 5.6137 8.38216C5.48284 8.49122 4.79196 9.15482 4.73198 9.23062C4.6934 9.26598 4.66474 9.31083 4.64886 9.3607C4.63297 9.41057 4.63042 9.46373 4.64145 9.51489C4.65247 9.56606 4.6767 9.61344 4.71171 9.65235C4.74673 9.69125 4.79131 9.72031 4.84104 9.73664C5.29799 9.89477 6.64756 10.4935 7.31662 10.7759C7.34126 10.7843 7.36735 10.7875 7.39329 10.7854C7.41923 10.7833 7.44446 10.776 7.46745 10.7638C7.49043 10.7516 7.51067 10.7348 7.52693 10.7145C7.54319 10.6941 7.55512 10.6707 7.562 10.6456M16.5292 6.63508C14.9838 8.01737 14.8093 8.1804 14.8966 8.47431C15.122 8.77458 15.3759 9.04849 15.6583 9.29605C15.1142 9.5796 14.3197 10.0196 13.9227 10.2378C13.3294 10.5584 13.7591 10.7383 13.8682 10.6892C14.1021 10.5965 15.8105 9.84024 16.3056 9.66085C16.3498 9.63912 16.3885 9.60769 16.4189 9.56891C16.4492 9.53013 16.4704 9.485 16.4809 9.43688C16.4914 9.38876 16.4909 9.33889 16.4794 9.291C16.4679 9.24311 16.4458 9.19842 16.4147 9.16028C16.3274 9.06213 15.6529 8.41488 15.5171 8.31673C15.7941 7.93012 16.4801 7.15746 16.7304 6.869C16.7606 6.85699 16.7866 6.83619 16.8049 6.80929C16.8233 6.78239 16.8331 6.75061 16.8333 6.71805C16.8334 6.6855 16.8237 6.65365 16.8056 6.62662C16.7875 6.59958 16.7616 6.5786 16.7315 6.56637C16.6951 6.55167 16.6547 6.55052 16.6175 6.56314C16.5804 6.57575 16.549 6.60128 16.5292 6.63508Z" fill="#0C6FFF"/>
<rect x="17.9326" y="5" width="0.675865" height="17.9074" rx="0.337932" transform="rotate(51.0378 17.9326 5)" fill="#303830"/>
<rect x="4" y="5.53693" width="0.675865" height="17.9074" rx="0.337932" transform="rotate(-51.1289 4 5.53693)" fill="#303830"/>
</svg>
