<svg width="56" height="56" viewBox="0 0 56 56" fill="none" xmlns="http://www.w3.org/2000/svg">
<rect x="1.8691" y="1.74999" width="52.1736" height="52.1736" rx="26.0868" fill="#FFE5CA"/>
<rect x="1.8691" y="1.74999" width="52.1736" height="52.1736" rx="26.0868" stroke="#D9D9D9" stroke-width="2.48446"/>
<path fill-rule="evenodd" clip-rule="evenodd" d="M33.2034 37.1222C32.879 36.9138 32.5351 36.7373 32.1765 36.5953C29.7963 35.6497 30.0537 36.3649 31.2702 35.4329C34.7993 32.7289 34.3116 26.0907 29.6757 25.1857C29.5555 25.1612 29.4305 25.1842 29.327 25.2499C29.2234 25.3156 29.1493 25.4188 29.1202 25.5379C28.9441 26.3752 30.2569 25.794 31.5547 27.4427C33.5678 30.0248 32.1223 36.4462 25.4706 34.9195C20.347 33.8641 21.023 24.9283 27.985 25.4553C28.0382 25.4606 28.0919 25.4555 28.1431 25.44C28.1943 25.4246 28.2419 25.3992 28.2833 25.3654C28.3247 25.3316 28.359 25.2899 28.3843 25.2428C28.4096 25.1957 28.4254 25.1441 28.4307 25.0909C28.436 25.0377 28.4308 24.984 28.4154 24.9328C28.4 24.8816 28.3746 24.8339 28.3408 24.7926C28.3069 24.7512 28.2653 24.7169 28.2182 24.6916C28.1711 24.6663 28.1195 24.6505 28.0663 24.6452C20.1438 23.644 18.4816 33.5945 24.0102 36.1224C20.7656 37.4745 18.1578 40.0159 18.6035 43.3824C18.5989 43.4384 18.606 43.4947 18.6243 43.5479C18.6425 43.601 18.6716 43.6497 18.7097 43.691C18.7477 43.7323 18.7939 43.7653 18.8454 43.7878C18.8968 43.8104 18.9524 43.822 19.0085 43.822C19.0647 43.822 19.1203 43.8104 19.1717 43.7878C19.2232 43.7653 19.2694 43.7323 19.3074 43.691C19.3455 43.6497 19.3746 43.601 19.3928 43.5479C19.4111 43.4947 19.4182 43.4384 19.4136 43.3824C19.5355 42.3881 19.9392 41.4506 20.5773 40.6784C21.5216 39.4631 22.621 38.3769 23.8476 37.4474C25.2809 36.5817 25.1997 36.663 25.1997 36.5275C25.7 36.6278 26.2049 36.691 26.7142 36.7172C26.2643 38.4855 26.1996 40.3298 26.5246 42.1253C26.5246 42.3962 26.5246 43.0302 27.1207 42.8812C27.714 42.7322 27.5393 42.4219 27.5393 42.0033C27.5393 41.8543 27.8644 39.6908 27.8915 39.2993C27.8889 38.3937 27.8164 37.4897 27.6748 36.5953C28.2099 36.5654 28.7409 36.4733 29.2557 36.3243C29.3776 36.6088 29.7163 36.5682 31.2431 37.5016C33.1248 38.9245 34.5146 40.9002 35.2179 43.1521C35.2469 43.2684 35.3198 43.3688 35.4213 43.4324C35.5228 43.496 35.645 43.5179 35.7623 43.4933C35.8795 43.4688 35.9827 43.3998 36.0502 43.3008C36.1177 43.2019 36.1442 43.0806 36.1242 42.9625C35.943 40.7115 34.896 38.6172 33.2034 37.1222Z" fill="#020202"/>
<path fill-rule="evenodd" clip-rule="evenodd" d="M26.5241 29.1605C25.4653 29.7966 24.2443 30.1111 23.01 30.0655C22.9547 30.0623 22.8994 30.0704 22.8474 30.0893C22.7954 30.1083 22.7478 30.1377 22.7075 30.1756C22.6673 30.2136 22.6352 30.2594 22.6133 30.3103C22.5914 30.3611 22.5801 30.4159 22.5801 30.4712C22.5801 30.5265 22.5914 30.5813 22.6133 30.6321C22.6352 30.683 22.6673 30.7288 22.7075 30.7668C22.7478 30.8047 22.7954 30.8341 22.8474 30.8531C22.8994 30.872 22.9547 30.8801 23.01 30.8769C24.4421 31.2413 25.9548 31.1173 27.3085 30.5247C27.9868 30.0623 28.6944 29.6478 29.4314 29.2811C30.5124 30.3364 31.1614 31.3362 31.6613 30.7821C31.7447 30.692 31.791 30.5737 31.791 30.4509C31.791 30.3281 31.7447 30.2098 31.6613 30.1196C30.4853 28.9166 30.3092 27.4156 29.0656 27.7814C28.1868 28.1824 27.3397 28.6421 26.5241 29.1605Z" fill="#020202"/>
<path fill-rule="evenodd" clip-rule="evenodd" d="M26.3886 21.765C26.5918 22.1986 26.8086 22.819 27.295 22.5223C27.3718 22.487 27.4362 22.4293 27.4797 22.3568C27.5232 22.2843 27.5438 22.2003 27.5388 22.1159C27.5388 21.9669 26.0242 17.858 25.8481 17.3852C29.2417 17.2633 29.0249 17.602 28.2541 11.6533C28.2438 11.547 28.1934 11.4486 28.1131 11.3781C28.0328 11.3076 27.9287 11.2704 27.8219 11.274C27.0917 11.274 27.6323 12.3023 27.3207 15.7893C26.9834 15.7893 24.889 15.8571 24.618 15.8977C24.4888 15.8982 24.3621 15.933 24.2507 15.9985C24.1394 16.064 24.0474 16.1579 23.9842 16.2706C23.9209 16.3832 23.8887 16.5107 23.8908 16.6399C23.893 16.769 23.9293 16.8953 23.9962 17.0059C24.5245 17.858 25.8346 20.6027 26.3886 21.765ZM19.4131 26.9564C19.5215 26.4687 19.0203 26.3603 18.5746 26.1042C17.5883 25.5772 15.6009 24.4691 14.2625 23.766C15.8041 22.3191 16.426 21.7515 16.1821 21.1432C14.9895 19.6648 13.6283 18.3309 12.1261 17.1684C12.0913 17.1214 12.0467 17.0824 11.9955 17.0542C11.9443 17.0259 11.8876 17.009 11.8292 17.0047C11.7709 17.0004 11.7123 17.0087 11.6574 17.0292C11.6026 17.0496 11.5528 17.0816 11.5115 17.123C11.4702 17.1644 11.4383 17.2143 11.418 17.2692C11.3977 17.324 11.3895 17.3826 11.394 17.441C11.3985 17.4993 11.4155 17.556 11.4438 17.6072C11.4722 17.6583 11.5113 17.7028 11.5584 17.7374C12.1816 18.4527 13.8845 20.4401 14.574 21.3329C14.2489 21.6038 12.5325 23.2525 12.3835 23.4408C12.2876 23.5287 12.2164 23.6401 12.1769 23.764C12.1375 23.8879 12.1311 24.02 12.1585 24.1471C12.1859 24.2742 12.2461 24.392 12.3331 24.4886C12.4201 24.5853 12.5309 24.6575 12.6544 24.698C13.7897 25.0909 17.1426 26.5784 18.8049 27.2801C18.8661 27.3009 18.9309 27.3089 18.9954 27.3037C19.0598 27.2985 19.1225 27.2802 19.1796 27.2499C19.2367 27.2196 19.287 27.1779 19.3274 27.1274C19.3678 27.0769 19.3974 27.0187 19.4145 26.9564M41.693 16.9923C37.8537 20.4266 37.4202 20.8316 37.637 21.5618C38.1969 22.3078 38.8278 22.9884 39.5295 23.6034C38.1775 24.3079 36.2037 25.4011 35.2174 25.943C33.7435 26.7396 34.811 27.1867 35.0819 27.0647C35.6631 26.8344 39.9075 24.9554 41.1376 24.5097C41.2474 24.4557 41.3436 24.3777 41.419 24.2813C41.4944 24.185 41.5471 24.0728 41.5732 23.9533C41.5992 23.8337 41.598 23.7098 41.5694 23.5909C41.5409 23.4719 41.4859 23.3608 41.4085 23.2661C41.1918 23.0222 39.516 21.4142 39.1786 21.1703C39.8668 20.2098 41.5711 18.2902 42.1929 17.5735C42.2681 17.5437 42.3326 17.492 42.3782 17.4252C42.4237 17.3583 42.4482 17.2794 42.4485 17.1985C42.4488 17.1176 42.4249 17.0385 42.3798 16.9713C42.3347 16.9042 42.2706 16.852 42.1956 16.8216C42.1053 16.7851 42.0049 16.7823 41.9126 16.8136C41.8204 16.8449 41.7424 16.9084 41.693 16.9923Z" fill="#0C6FFF"/>
<rect x="45.1797" y="12.9301" width="1.67916" height="44.4902" rx="0.839578" transform="rotate(51.0378 45.1797 12.9301)" fill="#303830"/>
<rect x="10.5647" y="14.264" width="1.67916" height="44.4902" rx="0.839578" transform="rotate(-51.1289 10.5647 14.264)" fill="#303830"/>
</svg>
