<svg width="23" height="23" viewBox="0 0 23 23" fill="none" xmlns="http://www.w3.org/2000/svg">
<rect width="22.9851" height="22.9851" rx="11.4925" fill="white"/>
<path d="M9.14388 12.5286C9.45017 12.5285 9.7478 12.6302 9.98997 12.8178C10.2321 13.0053 10.4051 13.268 10.4817 13.5646H14.3238C14.4101 13.5644 14.4933 13.5966 14.5571 13.6547C14.6209 13.7128 14.6606 13.7927 14.6684 13.8787C14.6762 13.9646 14.6515 14.0504 14.5992 14.119C14.547 14.1877 14.4709 14.2343 14.386 14.2497L14.3238 14.2552L10.4817 14.2559C10.4054 14.5527 10.2325 14.8157 9.99032 15.0035C9.74812 15.1913 9.45035 15.2933 9.14388 15.2933C8.83741 15.2933 8.53964 15.1913 8.29745 15.0035C8.05525 14.8157 7.88239 14.5527 7.80608 14.2559L6.72658 14.2552C6.64029 14.2554 6.55706 14.2232 6.49329 14.1651C6.42952 14.1069 6.38983 14.027 6.38203 13.9411C6.37423 13.8551 6.39889 13.7694 6.45116 13.7007C6.50343 13.6321 6.57951 13.5855 6.66442 13.5701L6.72658 13.5646H7.80608C7.88265 13.268 8.05562 13.0053 8.29779 12.8178C8.53996 12.6302 8.83759 12.5285 9.14388 12.5286ZM9.14388 13.2192C8.96071 13.2192 8.78504 13.292 8.65551 13.4215C8.52599 13.551 8.45322 13.7267 8.45322 13.9099C8.45322 14.0931 8.52599 14.2687 8.65551 14.3983C8.78504 14.5278 8.96071 14.6005 9.14388 14.6005C9.32705 14.6005 9.50273 14.5278 9.63225 14.3983C9.76177 14.2687 9.83454 14.0931 9.83454 13.9099C9.83454 13.7267 9.76177 13.551 9.63225 13.4215C9.50273 13.292 9.32705 13.2192 9.14388 13.2192ZM11.9065 7.69397C12.2128 7.69389 12.5104 7.79562 12.7526 7.98315C12.9948 8.17069 13.1677 8.43339 13.2443 8.72996H14.3238C14.4101 8.7298 14.4933 8.76195 14.5571 8.82009C14.6209 8.87823 14.6606 8.95814 14.6684 9.04408C14.6762 9.13002 14.6515 9.21577 14.5992 9.28444C14.547 9.3531 14.4709 9.39971 14.386 9.41509L14.3238 9.42061L13.2443 9.4213C13.168 9.71812 12.9951 9.98113 12.7529 10.1689C12.5108 10.3567 12.213 10.4587 11.9065 10.4587C11.6 10.4587 11.3023 10.3567 11.0601 10.1689C10.8179 9.98113 10.645 9.71812 10.5687 9.4213L6.72658 9.42061C6.64029 9.42077 6.55706 9.38862 6.49329 9.33048C6.42952 9.27234 6.38983 9.19243 6.38203 9.10649C6.37423 9.02055 6.39889 8.9348 6.45116 8.86613C6.50343 8.79746 6.57951 8.75086 6.66442 8.73548L6.72658 8.72996H10.5687C10.6453 8.43339 10.8183 8.17069 11.0604 7.98315C11.3026 7.79562 11.6002 7.69389 11.9065 7.69397ZM11.9065 8.38463C11.7233 8.38463 11.5477 8.45739 11.4181 8.58692C11.2886 8.71644 11.2159 8.89211 11.2159 9.07528C11.2159 9.25846 11.2886 9.43413 11.4181 9.56365C11.5477 9.69318 11.7233 9.76594 11.9065 9.76594C12.0897 9.76594 12.2654 9.69318 12.3949 9.56365C12.5244 9.43413 12.5972 9.25846 12.5972 9.07528C12.5972 8.89211 12.5244 8.71644 12.3949 8.58692C12.2654 8.45739 12.0897 8.38463 11.9065 8.38463Z" fill="#FF9F1C"/>
</svg>
